<svg xmlns="http://www.w3.org/2000/svg" height="1em" viewBox="0 0 448 512" fill="currentColor"><path d="M331.5 216.5c0 14.3-11.6 25.8-25.8 25.8h-79.4c-14.3 0-25.8-11.6-25.8-25.8s11.6-25.8 25.8-25.8h79.4c14.3 0 25.8 11.6 25.8 25.8zm-79.4 64.3h79.4c14.3 0 25.8 11.6 25.8 25.8s-11.6 25.8-25.8 25.8h-79.4c-14.3 0-25.8-11.6-25.8-25.8s11.6-25.8 25.8-25.8zM448 80v352c0 26.5-21.5 48-48 48H48c-26.5 0-48-21.5-48-48V80c0-26.5 21.5-48 48-48h352c26.5 0 48 21.5 48 48zm-48 346.5c0 8.8-7.2 16-16 16H64c-8.8 0-16-7.2-16-16V85.5c0-8.8 7.2-16 16-16h320c8.8 0 16 7.2 16 16v341z"/></svg>
