<svg xmlns="http://www.w3.org/2000/svg" viewBox="0 0 16 16" fill="black" width="16" height="16">
  <path d="M9.08 9.25c.34-.14.7-.22 1.07-.22.68 0 1.25.19 1.7.57.45.37.68.87.68 1.5 0 .6-.21 1.08-.64 1.45-.43.37-.98.55-1.65.55-.67 0-1.22-.18-1.65-.55-.43-.37-.64-.84-.64-1.45 0-.4.1-.75.3-1.05.2-.3.48-.52.83-.65zM6.5 2.75A3.75 3.75 0 0 0 2.75 6.5v3A3.75 3.75 0 0 0 6.5 13.25h3A3.75 3.75 0 0 0 13.25 9.5v-3A3.75 3.75 0 0 0 9.5 2.75h-3zm-4 3.75A4.25 4.25 0 0 1 6.5 2.25h3A4.25 4.25 0 0 1 13.75 6.5v3A4.25 4.25 0 0 1 9.5 13.75h-3A4.25 4.25 0 0 1 2.25 9.5v-3z"/>
</svg>
