<svg xmlns="http://www.w3.org/2000/svg" viewBox="0 0 512 512" fill="currentColor">
<path d="M339.2 400c-0.3 0-0.6 0-0.9 0s-0.6 0-0.9 0c-43.2-1.7-83.6-11.5-119.2-28.5c-33.6-16-62.6-38-85.9-64.8c-22.6-26-39.8-55.9-50.6-88.4c-10.4-31.4-15.1-64-13.8-95.3C69 122.5 69 122.2 69 121.9c0-3-0.1-5.9-0.1-8.9c0-15.3 11.4-28 26.6-29.4c16.3-1.5 30.5 10 32.1 26.3c0.1 1.2 0.1 2.4 0.1 3.6c0 2.8 0 5.7 0 8.5c0 0.3 0 0.6 0 0.9c-1.2 26.3 3 53.8 11.4 79.8c8.9 27.2 23.3 52.4 42.4 74.4c19.8 22.8 44.5 41.8 72.5 56.2c29.5 15.1 62.3 25.4 96 30.1c0.3 0 0.6 0 0.9 0c2.8 0 5.7 0 8.5 0c1.2 0 2.4 0 3.6 0.1c16.3 1.5 30.5 14.8 29.1 31.1c-1.4 15.2-14.2 27.7-29.4 27.8c-3 0-5.9-0.1-8.9-0.1c-0.3 0-0.6 0-0.9 0s-0.6 0-0.9 0c-11.8-0.8-23.8-2-35.8-3.6c-38.9-5.1-76.3-16.1-110.1-32.2c-31.9-15.2-61.1-35.4-86.4-59.7c-24.1-23.1-44.4-49.9-60.1-79.3c-14.8-27.8-25.1-57.7-30.2-88.4c-0.1-0.4-0.1-0.8-0.2-1.2c-1.5-16.3 10-30.5 26.3-32.1c15.2-1.4 28.7 8.9 31.1 24.1c0.1 0.4 0.2 0.8 0.2 1.2c4.8 29.1 14.5 59.2 28.5 86.6c14.7 28.6 34.3 54.8 57.9 77.5c24.6 23.6 52.9 43.4 83.6 58.3c32.4 15.8 67.3 26.5 103.2 31.4c11.8 1.6 23.8 2.8 35.8 3.6c0.3 0 0.6 0 0.9 0c3 0 5.9 0 8.9 0.1c0.3 0 0.6 0 0.9 0c0.3 0 0.6 0 0.9 0c15.3 1.4 28 14.2 27.8 29.4c-0.1 16.3-13.4 29.1-29.8 29.1c-0.3 0-0.6 0-0.9 0z"/>
</svg>
